<svg width="25" height="24" viewBox="0 0 25 24" fill="none" xmlns="http://www.w3.org/2000/svg">
<path d="M3.28003 14C3.28003 19 7.30947 23 12.28 23C17.2506 23 21.28 19 21.28 14C21.28 6.95235 15.7612 2.97071 13.3668 1.57489C13.0655 1.39923 12.9148 1.3114 12.7483 1.33142C12.6148 1.34746 12.4664 1.43871 12.3919 1.55053C12.2988 1.69012 12.3095 1.86949 12.3309 2.22824C12.5271 5.52075 13.0652 12 9.7086 12C7.55189 12 7.20406 10.2804 7.14796 7.56244C7.13828 7.09364 7.13345 6.85924 7.00464 6.71989C6.90109 6.60787 6.71743 6.54268 6.56642 6.56435C6.37859 6.59132 6.24101 6.75374 5.96585 7.0786C4.83091 8.4185 3.28003 10.8295 3.28003 14Z" fill="white"/>
</svg>
